<svg xmlns="http://www.w3.org/2000/svg" xmlns:svgjs="http://svgjs.dev/svgjs" xmlns:xlink="http://www.w3.org/1999/xlink" opacity="1" version="1.1" viewBox="0 0 800 800"><defs><linearGradient id="hhhorizon-grad" x1="50%" x2="50%" y1="0%" y2="100%"><stop offset="25%" stop-color="hsl(0, 0%, 0%)" stop-opacity="1"/><stop offset="100%" stop-color="hsl(272, 99%, 54%)" stop-opacity="1"/></linearGradient><linearGradient id="hhhorizon-grad2" x1="50%" x2="50%" y1="0%" y2="100%"><stop offset="0%" stop-color="hsl(272, 99%, 54%)" stop-opacity="1"/><stop offset="75%" stop-color="hsl(0, 0%, 0%)" stop-opacity="1"/></linearGradient><clipPath id="SvgjsClipPath1034"><rect width="800" height="37" x="0" y="0"/><rect width="800" height="36" x="0" y="22"/><rect width="800" height="35" x="0" y="44"/><rect width="800" height="34" x="0" y="67"/><rect width="800" height="33" x="0" y="89"/><rect width="800" height="32" x="0" y="111"/><rect width="800" height="31" x="0" y="133"/><rect width="800" height="30" x="0" y="156"/><rect width="800" height="29" x="0" y="178"/><rect width="800" height="28" x="0" y="200"/><rect width="800" height="27" x="0" y="222"/><rect width="800" height="26" x="0" y="244"/><rect width="800" height="25" x="0" y="267"/><rect width="800" height="24" x="0" y="289"/><rect width="800" height="23" x="0" y="311"/><rect width="800" height="22" x="0" y="333"/><rect width="800" height="21" x="0" y="356"/><rect width="800" height="20" x="0" y="378"/><rect width="800" height="19" x="0" y="400"/><rect width="800" height="18" x="0" y="422"/><rect width="800" height="17" x="0" y="444"/><rect width="800" height="16" x="0" y="467"/><rect width="800" height="15" x="0" y="489"/><rect width="800" height="14" x="0" y="511"/><rect width="800" height="13" x="0" y="533"/><rect width="800" height="12" x="0" y="556"/><rect width="800" height="11" x="0" y="578"/><rect width="800" height="10" x="0" y="600"/><rect width="800" height="9" x="0" y="622"/><rect width="800" height="8" x="0" y="644"/><rect width="800" height="7" x="0" y="667"/><rect width="800" height="6" x="0" y="689"/><rect width="800" height="5" x="0" y="711"/><rect width="800" height="4" x="0" y="733"/><rect width="800" height="3" x="0" y="756"/><rect width="800" height="2" x="0" y="778"/><rect width="800" height="1" x="0" y="800"/></clipPath><clipPath><rect width="800" height="1" x="0" y="37"/><rect width="800" height="2" x="0" y="74"/><rect width="800" height="3" x="0" y="111"/><rect width="800" height="4" x="0" y="148"/><rect width="800" height="5" x="0" y="185"/><rect width="800" height="6" x="0" y="222"/><rect width="800" height="7" x="0" y="259"/><rect width="800" height="8" x="0" y="296"/><rect width="800" height="9" x="0" y="333"/><rect width="800" height="10" x="0" y="370"/><rect width="800" height="11" x="0" y="407"/><rect width="800" height="12" x="0" y="444"/><rect width="800" height="13" x="0" y="481"/><rect width="800" height="14" x="0" y="518"/><rect width="800" height="15" x="0" y="555"/><rect width="800" height="16" x="0" y="592"/><rect width="800" height="17" x="0" y="629"/><rect width="800" height="18" x="0" y="666"/><rect width="800" height="19" x="0" y="703"/><rect width="800" height="20" x="0" y="740"/><rect width="800" height="21" x="0" y="777"/><rect width="800" height="22" x="0" y="814"/></clipPath></defs><rect width="800" height="800" fill="url(#hhhorizon-grad)" clip-path="url(&quot;#SvgjsClipPath1034&quot;)"/></svg>